<svg width="80" height="80" viewBox="0 0 80 80" fill="none" xmlns="http://www.w3.org/2000/svg">
<circle cx="40" cy="40" r="36" stroke="#3C5E9D" stroke-opacity="0.2" stroke-width="8"/>
<path fill-rule="evenodd" clip-rule="evenodd" d="M34.4208 22.2878L29.4042 41.05L25.4171 42.5906L23.9726 47.9228L28.0112 46.5503L25.321 57.6333L54.2604 57.6813L56.0446 50.5649H38.4079L40.6828 41.9867L45.4283 39.9554L46.8008 34.7227L42.1514 36.3045L45.7954 22.3599L34.4208 22.3118V22.2878ZM39.9966 8C46.3259 7.99932 52.5132 9.8756 57.7761 13.3915C63.039 16.9075 67.1411 21.9052 69.5635 27.7525C71.9859 33.5999 72.6199 40.0343 71.3853 46.242C70.1507 52.4498 67.1029 58.1519 62.6274 62.6274C58.1519 67.1029 52.4498 70.1507 46.2421 71.3853C40.0343 72.6199 33.5999 71.9859 27.7525 69.5635C21.9052 67.1411 16.9075 63.039 13.3915 57.7761C9.8756 52.5132 7.99932 46.3259 8 39.9966C8.00364 31.5117 11.3759 23.3753 17.3756 17.3756C23.3753 11.3759 31.5117 8.00364 39.9966 8Z" fill="#3C5E9D"/>
</svg>
